<mxfile host="Electron" modified="2024-03-04T18:38:49.814Z" agent="Mozilla/5.0 (Macintosh; Intel Mac OS X 10_15_7) AppleWebKit/537.36 (KHTML, like Gecko) draw.io/23.1.5 Chrome/120.0.6099.109 Electron/28.1.0 Safari/537.36" etag="oMIN8c8gbifM_acCYFQN" version="23.1.5" type="device">
  <diagram name="Page-1" id="tYkl9xWEWTr0qgZEpZZn">
    <mxGraphModel dx="1147" dy="578" grid="1" gridSize="10" guides="1" tooltips="1" connect="1" arrows="1" fold="1" page="1" pageScale="1" pageWidth="850" pageHeight="1100" math="0" shadow="0">
      <root>
        <mxCell id="0" />
        <mxCell id="1" parent="0" />
        <mxCell id="5r6nTSmWgqjdrxlf6EIq-1" value="Ä—Rest1&#xa;p.ok = max_recharge&#xa;ndays += 1&#xa;zd.send (eh=eh, port=&quot;&quot;, datum=zd.new_datum_string (fmt.aprintf (&quot;p=%v m=%v ndays=%v\n&quot;, p, m, ndays)), causingMessage=msg)" style="rounded=1;sketch=0;container=1;recursiveResize=0;verticalAlign=top;arcSize=6;fontStyle=0;autosize=0;points=[];absoluteArcSize=1;shadow=1;strokeColor=#d6b656;fillColor=#fff2cc;fontFamily=Helvetica;fontSize=11;" vertex="1" parent="1">
          <mxGeometry x="140" y="20" width="540" height="100" as="geometry">
            <mxRectangle x="-98" y="-1230" width="99" height="26" as="alternateBounds" />
          </mxGeometry>
        </mxCell>
        <mxCell id="5r6nTSmWgqjdrxlf6EIq-2" value="" style="rounded=1;whiteSpace=wrap;html=1;sketch=0;points=[[0,0.5,0,0,0],[1,0.5,0,0,0]];arcSize=50;fontFamily=Helvetica;fontSize=11;fontColor=default;" vertex="1" parent="5r6nTSmWgqjdrxlf6EIq-1">
          <mxGeometry y="47.5" width="8.75" height="10" as="geometry" />
        </mxCell>
        <mxCell id="5r6nTSmWgqjdrxlf6EIq-3" value="" style="rounded=1;whiteSpace=wrap;html=1;sketch=0;points=[[0,0.5,0,0,0],[1,0.5,0,0,0]];arcSize=50;fontFamily=Helvetica;fontSize=11;fontColor=#ffffff;fillColor=#1ba1e2;strokeColor=#006EAF;" vertex="1" parent="5r6nTSmWgqjdrxlf6EIq-1">
          <mxGeometry x="531.25" y="47.5" width="8.75" height="10" as="geometry" />
        </mxCell>
      </root>
    </mxGraphModel>
  </diagram>
</mxfile>
